RBDS002runT35_grf
version=1
nRows=37
nColumns=19
inDegrees=no
endheader
time	ground_force_r_vx	ground_force_r_vy	ground_force_r_vz	ground_force_r_px	ground_force_r_py	ground_force_r_pz	ground_force_r_mx	ground_force_r_my	ground_force_r_mz	ground_force_l_vx	ground_force_l_vy	ground_force_l_vz	ground_force_l_px	ground_force_l_py	ground_force_l_pz	ground_force_l_mx	ground_force_l_my	ground_force_l_mz
     14.99900000	   -302.91461340	   1505.54585756	      6.81683980	      2.34375307	      0.00000000	      1.03877829	     -0.00000000	      4.69691755	      0.00000000	      0.00000000	      0.00000000	      0.00000000	      0.00000000	      0.00000000	      0.00000000	      0.00000000	      0.00000000	      0.00000000
     15.00000000	   -305.59298979	   1521.50956278	      7.62381244	      2.34158204	      0.00000000	      1.03843733	     -0.00000000	      4.91958154	      0.00000000	      0.00000000	      0.00000000	      0.00000000	      0.00000000	      0.00000000	      0.00000000	      0.00000000	      0.00000000	      0.00000000
     15.00100000	   -307.48989872	   1535.67821224	      8.31738604	      2.33928751	      0.00000000	      1.03814255	     -0.00000000	      5.09196016	      0.00000000	      0.00000000	      0.00000000	      0.00000000	      0.00000000	      0.00000000	      0.00000000	      0.00000000	      0.00000000	      0.00000000
     15.00200000	   -309.38680764	   1549.84686171	      9.01095964	      2.33699298	      0.00000000	      1.03784777	     -0.00000000	      5.26433878	      0.00000000	      0.00000000	      0.00000000	      0.00000000	      0.00000000	      0.00000000	      0.00000000	      0.00000000	      0.00000000	      0.00000000
     15.00300000	   -311.28371657	   1564.01551118	      9.70453324	      2.33469845	      0.00000000	      1.03755300	     -0.00000000	      5.43671740	      0.00000000	      0.00000000	      0.00000000	      0.00000000	      0.00000000	      0.00000000	      0.00000000	      0.00000000	      0.00000000	      0.00000000
     15.00400000	   -312.64524310	   1577.14327058	     10.29638350	      2.33232078	      0.00000000	      1.03728960	     -0.00000000	      5.57676960	      0.00000000	      0.00000000	      0.00000000	      0.00000000	      0.00000000	      0.00000000	      0.00000000	      0.00000000	      0.00000000	      0.00000000
     15.00500000	   -313.73907844	   1589.75058496	     10.83737210	      2.32990153	      0.00000000	      1.03704189	     -0.00000000	      5.70065859	      0.00000000	      0.00000000	      0.00000000	      0.00000000	      0.00000000	      0.00000000	      0.00000000	      0.00000000	      0.00000000	      0.00000000
     15.00600000	   -314.83291379	   1602.35789934	     11.37836069	      2.32748228	      0.00000000	      1.03679419	     -0.00000000	      5.82454757	      0.00000000	      0.00000000	      0.00000000	      0.00000000	      0.00000000	      0.00000000	      0.00000000	      0.00000000	      0.00000000	      0.00000000
     15.00700000	   -315.65547802	   1614.52068901	     11.85966014	      2.32502175	      0.00000000	      1.03656212	     -0.00000000	      5.93348497	      0.00000000	      0.00000000	      0.00000000	      0.00000000	      0.00000000	      0.00000000	      0.00000000	      0.00000000	      0.00000000	      0.00000000
     15.00800000	   -315.93550003	   1625.79442928	     12.22158129	      2.32247866	      0.00000000	      1.03636131	     -0.00000000	      6.01251919	      0.00000000	      0.00000000	      0.00000000	      0.00000000	      0.00000000	      0.00000000	      0.00000000	      0.00000000	      0.00000000	      0.00000000
     15.00900000	   -316.21552204	   1637.06816954	     12.58350244	      2.31993556	      0.00000000	      1.03616050	     -0.00000000	      6.09155342	      0.00000000	      0.00000000	      0.00000000	      0.00000000	      0.00000000	      0.00000000	      0.00000000	      0.00000000	      0.00000000	      0.00000000
     15.01000000	   -316.49554405	   1648.34190981	     12.94542359	      2.31739246	      0.00000000	      1.03595969	     -0.00000000	      6.17058764	      0.00000000	      0.00000000	      0.00000000	      0.00000000	      0.00000000	      0.00000000	      0.00000000	      0.00000000	      0.00000000	      0.00000000
     15.01100000	   -315.96229679	   1658.49357123	     13.11519899	      2.31472849	      0.00000000	      1.03580453	     -0.00000000	      6.21000705	      0.00000000	      0.00000000	      0.00000000	      0.00000000	      0.00000000	      0.00000000	      0.00000000	      0.00000000	      0.00000000	      0.00000000
     15.01200000	   -315.42904953	   1668.64523264	     13.28497438	      2.31206452	      0.00000000	      1.03564938	     -0.00000000	      6.24942647	      0.00000000	      0.00000000	      0.00000000	      0.00000000	      0.00000000	      0.00000000	      0.00000000	      0.00000000	      0.00000000	      0.00000000
     15.01300000	   -314.89580227	   1678.79689406	     13.45474978	      2.30940055	      0.00000000	      1.03549422	     -0.00000000	      6.28884588	      0.00000000	      0.00000000	      0.00000000	      0.00000000	      0.00000000	      0.00000000	      0.00000000	      0.00000000	      0.00000000	      0.00000000
     15.01400000	   -313.82828148	   1688.32514352	     13.49647667	      2.30665940	      0.00000000	      1.03536800	     -0.00000000	      6.30619879	      0.00000000	      0.00000000	      0.00000000	      0.00000000	      0.00000000	      0.00000000	      0.00000000	      0.00000000	      0.00000000	      0.00000000
     15.01500000	   -312.49362392	   1697.54168700	     13.47417930	      2.30387965	      0.00000000	      1.03525623	     -0.00000000	      6.31251845	      0.00000000	      0.00000000	      0.00000000	      0.00000000	      0.00000000	      0.00000000	      0.00000000	      0.00000000	      0.00000000	      0.00000000
     15.01600000	   -311.15896637	   1706.75823048	     13.45188193	      2.30109990	      0.00000000	      1.03514447	     -0.00000000	      6.31883811	      0.00000000	      0.00000000	      0.00000000	      0.00000000	      0.00000000	      0.00000000	      0.00000000	      0.00000000	      0.00000000	      0.00000000
     15.01700000	   -309.56477298	   1715.71519169	     13.36960871	      2.29828393	      0.00000000	      1.03504612	     -0.00000000	      6.31658831	      0.00000000	      0.00000000	      0.00000000	      0.00000000	      0.00000000	      0.00000000	      0.00000000	      0.00000000	      0.00000000	      0.00000000
     15.01800000	   -307.45150792	   1724.15298839	     13.16738381	      2.29539551	      0.00000000	      1.03497458	     -0.00000000	      6.29719958	      0.00000000	      0.00000000	      0.00000000	      0.00000000	      0.00000000	      0.00000000	      0.00000000	      0.00000000	      0.00000000	      0.00000000
     15.01900000	   -305.33824285	   1732.59078509	     12.96515890	      2.29250710	      0.00000000	      1.03490305	     -0.00000000	      6.27781085	      0.00000000	      0.00000000	      0.00000000	      0.00000000	      0.00000000	      0.00000000	      0.00000000	      0.00000000	      0.00000000	      0.00000000
     15.02000000	   -303.22497779	   1741.02858178	     12.76293399	      2.28961868	      0.00000000	      1.03483151	     -0.00000000	      6.25842212	      0.00000000	      0.00000000	      0.00000000	      0.00000000	      0.00000000	      0.00000000	      0.00000000	      0.00000000	      0.00000000	      0.00000000
     15.02100000	   -300.36609210	   1748.80959890	     12.40326139	      2.28663055	      0.00000000	      1.03479625	     -0.00000000	      6.22115495	      0.00000000	      0.00000000	      0.00000000	      0.00000000	      0.00000000	      0.00000000	      0.00000000	      0.00000000	      0.00000000	      0.00000000
     15.02200000	   -297.50720641	   1756.59061601	     12.04358878	      2.28364242	      0.00000000	      1.03476099	     -0.00000000	      6.18388779	      0.00000000	      0.00000000	      0.00000000	      0.00000000	      0.00000000	      0.00000000	      0.00000000	      0.00000000	      0.00000000	      0.00000000
     15.02300000	   -294.64832073	   1764.37163313	     11.68391618	      2.28065429	      0.00000000	      1.03472573	     -0.00000000	      6.14662062	      0.00000000	      0.00000000	      0.00000000	      0.00000000	      0.00000000	      0.00000000	      0.00000000	      0.00000000	      0.00000000	      0.00000000
     15.02400000	   -291.32040249	   1771.77205988	     11.23968433	      2.27760671	      0.00000000	      1.03471160	     -0.00000000	      6.10264955	      0.00000000	      0.00000000	      0.00000000	      0.00000000	      0.00000000	      0.00000000	      0.00000000	      0.00000000	      0.00000000	      0.00000000
     15.02500000	   -287.75796798	   1778.98219145	     10.75317286	      2.27452940	      0.00000000	      1.03470805	     -0.00000000	      6.05532654	      0.00000000	      0.00000000	      0.00000000	      0.00000000	      0.00000000	      0.00000000	      0.00000000	      0.00000000	      0.00000000	      0.00000000
     15.02600000	   -284.19553347	   1786.19232303	     10.26666139	      2.27145209	      0.00000000	      1.03470450	     -0.00000000	      6.00800353	      0.00000000	      0.00000000	      0.00000000	      0.00000000	      0.00000000	      0.00000000	      0.00000000	      0.00000000	      0.00000000	      0.00000000
     15.02700000	   -280.41518128	   1793.22885909	      9.74995683	      2.26834897	      0.00000000	      1.03470985	     -0.00000000	      5.95979206	      0.00000000	      0.00000000	      0.00000000	      0.00000000	      0.00000000	      0.00000000	      0.00000000	      0.00000000	      0.00000000	      0.00000000
     15.02800000	   -276.19899375	   1799.91820413	      9.17286608	      2.26519424	      0.00000000	      1.03473300	     -0.00000000	      5.90980368	      0.00000000	      0.00000000	      0.00000000	      0.00000000	      0.00000000	      0.00000000	      0.00000000	      0.00000000	      0.00000000	      0.00000000
     15.02900000	   -271.98280621	   1806.60754917	      8.59577533	      2.26203951	      0.00000000	      1.03475615	     -0.00000000	      5.85981530	      0.00000000	      0.00000000	      0.00000000	      0.00000000	      0.00000000	      0.00000000	      0.00000000	      0.00000000	      0.00000000	      0.00000000
     15.03000000	   -267.76661868	   1813.29689421	      8.01868457	      2.25888477	      0.00000000	      1.03477930	     -0.00000000	      5.80982691	      0.00000000	      0.00000000	      0.00000000	      0.00000000	      0.00000000	      0.00000000	      0.00000000	      0.00000000	      0.00000000	      0.00000000
     15.03100000	   -262.95266743	   1819.48170568	      7.39035989	      2.25566516	      0.00000000	      1.03482390	     -0.00000000	      5.76375418	      0.00000000	      0.00000000	      0.00000000	      0.00000000	      0.00000000	      0.00000000	      0.00000000	      0.00000000	      0.00000000	      0.00000000
     15.03200000	   -258.13871619	   1825.66651716	      6.76203521	      2.25244555	      0.00000000	      1.03486849	      0.00000000	      5.71768145	      0.00000000	      0.00000000	      0.00000000	      0.00000000	      0.00000000	      0.00000000	      0.00000000	      0.00000000	      0.00000000	      0.00000000
     15.03300000	   -253.32476494	   1831.85132863	      6.13371053	      2.24922594	      0.00000000	      1.03491309	      0.00000000	      5.67160872	      0.00000000	      0.00000000	      0.00000000	      0.00000000	      0.00000000	      0.00000000	      0.00000000	      0.00000000	      0.00000000	      0.00000000
     15.03400000	   -248.15268811	   1837.69024891	      5.49786071	      2.24597165	      0.00000000	      1.03496843	      0.00000000	      5.63178837	      0.00000000	      0.00000000	      0.00000000	      0.00000000	      0.00000000	      0.00000000	      0.00000000	      0.00000000	      0.00000000	      0.00000000
     15.03500000	   -242.80154850	   1843.35622359	      4.85824833	      2.24270003	      0.00000000	      1.03502913	      0.00000000	      5.59509420	      0.00000000	      0.00000000	      0.00000000	      0.00000000	      0.00000000	      0.00000000	      0.00000000	      0.00000000	      0.00000000	      0.00000000
